<svg width="33" height="37" viewBox="0 0 33 37" fill="none" xmlns="http://www.w3.org/2000/svg">
<mask id="path-1-inside-1_67_41" fill="white">
<path d="M16.5 0C25.6127 0 33 7.32876 33 16.3691C32.9999 25.4094 25.6126 32.7383 16.5 32.7383C16.4554 32.7383 16.4108 32.7367 16.3662 32.7363V36.9971H0V16.2363H0.00195312C0.0737531 7.25699 7.43189 0 16.5 0Z"/>
</mask>
<path d="M16.5 0V-4V0ZM33 16.3691L37 16.3692V16.3691H33ZM16.3662 32.7363L16.3977 28.7365L12.3662 28.7047V32.7363H16.3662ZM16.3662 36.9971V40.9971H20.3662V36.9971H16.3662ZM0 36.9971H-4V40.9971H0V36.9971ZM0 16.2363V12.2363H-4V16.2363H0ZM0.00195312 16.2363V20.2363H3.9701L4.00183 16.2683L0.00195312 16.2363ZM16.5 0V4C23.4336 4 29 9.56786 29 16.3691H33H37C37 5.08967 27.7918 -4 16.5 -4V0ZM33 16.3691L29 16.3691C28.9999 23.1703 23.4335 28.7383 16.5 28.7383V32.7383V36.7383C27.7917 36.7383 36.9998 27.6485 37 16.3692L33 16.3691ZM16.5 32.7383V28.7383C16.5124 28.7383 16.5206 28.7384 16.5224 28.7384C16.5236 28.7384 16.5222 28.7384 16.5128 28.7382C16.5069 28.7381 16.4878 28.7377 16.4713 28.7374C16.4526 28.7371 16.427 28.7367 16.3977 28.7365L16.3662 32.7363L16.3347 36.7362C16.3277 36.7361 16.3244 36.7361 16.328 36.7361C16.3338 36.7362 16.3369 36.7363 16.3534 36.7366C16.3767 36.7371 16.4341 36.7383 16.5 36.7383V32.7383ZM16.3662 32.7363H12.3662V36.9971H16.3662H20.3662V32.7363H16.3662ZM16.3662 36.9971V32.9971H0V36.9971V40.9971H16.3662V36.9971ZM0 36.9971H4V16.2363H0H-4V36.9971H0ZM0 16.2363V20.2363H0.00195312V16.2363V12.2363H0V16.2363ZM0.00195312 16.2363L4.00183 16.2683C4.05584 9.51304 9.60096 4 16.5 4V0V-4C5.26282 -4 -3.90833 5.00093 -3.99792 16.2043L0.00195312 16.2363Z" fill="white" mask="url(#path-1-inside-1_67_41)"/>
<circle cx="30.5" cy="34.5" r="2.5" fill="white"/>
</svg>
