<svg width="26" height="26" viewBox="0 0 26 26" fill="none" xmlns="http://www.w3.org/2000/svg">
<circle cx="12.6986" cy="12.9397" r="12.6986" fill="#141313"/>
<path d="M15.1345 4.71358H10.2228L3.27451 16.6934L8.2661 11.6055L12.6671 7.18942L15.1345 4.71358Z" fill="#7B2CBF"/>
<path d="M15.1345 4.71358L12.6671 7.18942L16.9953 11.622L15.1345 4.71358Z" fill="#5A189A"/>
<path d="M18.6087 17.6119L19.4872 21.086L22.0829 16.6535L15.1345 4.71358L16.9953 11.622L18.6087 17.6119Z" fill="#7B2CBF"/>
<path d="M12.499 19.1927L19.4872 21.086L18.6087 17.6119L12.499 19.1927Z" fill="#5A189A"/>
<path d="M3.27451 16.6934L5.71041 20.9263L19.4872 21.086L12.499 19.1927L6.66444 17.6119L3.27451 16.6934Z" fill="#7B2CBF"/>
<path d="M8.2661 11.6055L3.27451 16.6934L6.66444 17.6119L7.46527 14.6087L8.2661 11.6055Z" fill="#5A189A"/>
</svg>
