<svg width="38" height="38" viewBox="0 0 38 38" fill="none" xmlns="http://www.w3.org/2000/svg">
<path d="M28.2388 13.2129C26.65 13.2122 25.0857 13.6043 23.6858 14.354C23.5581 14.0184 23.331 13.7295 23.0347 13.5256C22.7385 13.3218 22.387 13.2127 22.0272 13.2129H14.9281C14.695 13.2128 14.4642 13.2585 14.2488 13.3474C14.0334 13.4363 13.8377 13.5667 13.6729 13.7312C13.5081 13.8956 13.3773 14.0908 13.2882 14.3057C13.199 14.5206 13.1532 14.7509 13.1534 14.9834V36.2295C13.1532 36.462 13.199 36.6923 13.2882 36.9072C13.3773 37.1221 13.508 37.3173 13.6729 37.4817C13.8377 37.6462 14.0334 37.7766 14.2488 37.8655C14.4642 37.9544 14.695 38.0001 14.9281 38H22.0272C22.2603 38.0001 22.4911 37.9544 22.7065 37.8655C22.9219 37.7766 23.1176 37.6462 23.2824 37.4817C23.4472 37.3173 23.578 37.1221 23.6671 36.9072C23.7562 36.6923 23.8021 36.462 23.8019 36.2295V26.4917C23.8019 26.0221 23.9889 25.5718 24.3217 25.2398C24.6546 24.9077 25.106 24.7212 25.5767 24.7212C26.0474 24.7212 26.4988 24.9077 26.8316 25.2398C27.1645 25.5718 27.3514 26.0221 27.3514 26.4917V36.2295C27.3513 36.462 27.3971 36.6923 27.4863 36.9072C27.5754 37.1221 27.7061 37.3173 27.871 37.4817C28.0358 37.6462 28.2315 37.7766 28.4469 37.8655C28.6623 37.9544 28.8931 38.0001 29.1262 38H36.2252C36.4583 38.0001 36.6892 37.9544 36.9046 37.8655C37.12 37.7766 37.3157 37.6462 37.4805 37.4817C37.6453 37.3173 37.776 37.1221 37.8652 36.9072C37.9543 36.6923 38.0001 36.462 38 36.2295V22.9507C37.9968 20.3691 36.9673 17.8941 35.1375 16.0686C33.3076 14.2431 30.8267 13.2161 28.2388 13.2129ZM34.4505 34.459H30.901V26.4917C30.901 25.083 30.34 23.732 29.3415 22.7359C28.343 21.7398 26.9888 21.1802 25.5767 21.1802C24.1646 21.1802 22.8103 21.7398 21.8118 22.7359C20.8133 23.732 20.2524 25.083 20.2524 26.4917V34.459H16.7029V16.7539H20.2524V17.9988C20.2526 18.3657 20.367 18.7234 20.5798 19.0226C20.7925 19.3218 21.0931 19.5478 21.4401 19.6692C21.7871 19.7907 22.1634 19.8017 22.5169 19.7007C22.8704 19.5997 23.1838 19.3917 23.4137 19.1054C24.2102 18.0962 25.3026 17.3604 26.5386 17.0007C27.7745 16.6409 29.0922 16.6752 30.3077 17.0986C31.5232 17.5221 32.5758 18.3137 33.3185 19.3628C34.0612 20.412 34.4569 21.6663 34.4505 22.9507V34.459ZM9.60384 13.2129H2.5048C2.2717 13.2128 2.04086 13.2585 1.82548 13.3474C1.61009 13.4363 1.41439 13.5667 1.24956 13.7312C1.08473 13.8956 0.954011 14.0908 0.864868 14.3057C0.775725 14.5206 0.729911 14.7509 0.730044 14.9834V36.2295C0.729908 36.462 0.775721 36.6923 0.864864 36.9072C0.954006 37.1221 1.08473 37.3173 1.24956 37.4817C1.41439 37.6462 1.61009 37.7766 1.82547 37.8655C2.04086 37.9544 2.2717 38.0001 2.5048 38H9.60384C9.83695 38.0001 10.0678 37.9544 10.2832 37.8655C10.4986 37.7766 10.6943 37.6462 10.8591 37.4817C11.0239 37.3173 11.1546 37.1221 11.2438 36.9072C11.3329 36.6923 11.3787 36.462 11.3786 36.2295V14.9834C11.3787 14.7509 11.3329 14.5206 11.2438 14.3057C11.1546 14.0908 11.0239 13.8956 10.8591 13.7312C10.6943 13.5667 10.4986 13.4363 10.2832 13.3474C10.0678 13.2585 9.83694 13.2128 9.60384 13.2129ZM7.82908 34.459H4.27956V16.7539H7.82908V34.459ZM6.08032 0.0102273C5.30362 -0.036154 4.52557 0.075554 3.7935 0.338558C3.06143 0.601563 2.39064 1.01037 1.82191 1.54011C1.25318 2.06985 0.798399 2.70946 0.485231 3.42005C0.172062 4.13063 0.00704711 4.89733 0.000220824 5.67353C-0.00660547 6.44973 0.1449 7.21921 0.445522 7.93516C0.746145 8.65112 1.1896 9.29859 1.74893 9.83821C2.30825 10.3778 2.97176 10.7983 3.69909 11.0741C4.42642 11.3499 5.20238 11.4752 5.97978 11.4424H6.03004C6.8088 11.4885 7.58882 11.3758 8.32242 11.111C9.05603 10.8463 9.72782 10.4351 10.2967 9.9026C10.8657 9.37009 11.3198 8.72745 11.6313 8.01394C11.9429 7.30044 12.1053 6.53105 12.1088 5.7528C12.1122 4.97454 11.9565 4.20376 11.6512 3.48756C11.346 2.77135 10.8975 2.12476 10.3333 1.5873C9.76908 1.04983 9.10093 0.632781 8.36968 0.361623C7.63843 0.0904656 6.85946 -0.0291017 6.08032 0.0102273ZM6.03006 7.90138H5.97978C5.67287 7.93856 5.36153 7.90984 5.06665 7.81715C4.77177 7.72446 4.50017 7.56995 4.27006 7.36397C4.03994 7.15798 3.85663 6.9053 3.73243 6.62285C3.60822 6.34041 3.54599 6.03473 3.54991 5.72633C3.54991 4.40535 4.54301 3.55122 6.08032 3.55122C6.39037 3.50999 6.70568 3.53552 7.005 3.62609C7.30433 3.71666 7.58072 3.87017 7.81557 4.07627C8.05042 4.28238 8.23826 4.5363 8.36646 4.82093C8.49465 5.10556 8.56022 5.41429 8.55874 5.72633C8.55874 7.04729 7.56564 7.90138 6.03006 7.90138Z" fill="#323232"/>
</svg>
